<svg xmlns="http://www.w3.org/2000/svg" width="60" height="48.129" viewBox="0 0 60 48.129">
  <g id="Gruppe_64" data-name="Gruppe 64" transform="translate(-344 -1013.871)">
    <path id="Rechteck_44" data-name="Rechteck 44" d="M0,0H60a0,0,0,0,1,0,0V18A12,12,0,0,1,48,30H12A12,12,0,0,1,0,18V0A0,0,0,0,1,0,0Z" transform="translate(344 1032)" fill="#636d80"/>
    <path id="iconmonstr-star-3" d="M6.72.587,8.774,4.825l4.666.645-3.4,3.264.829,4.636L6.72,11.148,2.567,13.37,3.4,8.734,0,5.47l4.666-.645Z" transform="translate(386.782 1013.661) rotate(69)" fill="#636d80"/>
    <path id="iconmonstr-star-3-2" data-name="iconmonstr-star-3" d="M6.72,12.783,8.774,8.545,13.44,7.9l-3.4-3.264L10.873,0,6.72,2.222,2.567,0,3.4,4.636,0,7.9l4.666.645Z" transform="translate(373.7 1018.452) rotate(111)" fill="#636d80"/>
    <path id="Pfad_98" data-name="Pfad 98" d="M-1369.269,877.394s6.014,7.612,15.073,7.543,14.927-7.543,14.927-7.543" transform="translate(1728.269 161)" fill="none" stroke="#e5e9f3" stroke-width="4"/>
  </g>
</svg>
