<svg id="Icon_Wissenswertes" data-name="Icon Wissenswertes" xmlns="http://www.w3.org/2000/svg" width="32" height="32" viewBox="0 0 32 32">
  <g id="Ellipse_32" data-name="Ellipse 32" fill="#e5e9f3" stroke="#202b6a" stroke-width="1">
    <circle cx="16" cy="16" r="16" stroke="none"/>
    <circle cx="16" cy="16" r="15.5" fill="none"/>
  </g>
  <g id="Gruppe_89" data-name="Gruppe 89" transform="translate(6 3.635)">
    <path id="iconmonstr-school-17" d="M15.075,22.944H3.244a34.24,34.24,0,0,0,.594-5.436A4.414,4.414,0,0,0,3.331,15.5a11.919,11.919,0,0,1-2.323-7.1C1.219,3.413,5.413,0,10.513,0,15.3,0,18.5,2.869,19.766,7.154a2.942,2.942,0,0,1-.142,2.492l-.006.012,1.644,2.048a2.1,2.1,0,0,1,.388,1.185,1.847,1.847,0,0,1-.573,1.338,3.263,3.263,0,0,1-1.171.614s-.541,2.478-.819,3.146c-.657,1.571-1.849,1.586-2.788,1.768-.37.079-.46.127-.639.651a24.976,24.976,0,0,0-.584,2.536M10.531,1.911c-4.022.046-7.265,2.436-7.622,6.2a9.077,9.077,0,0,0,1.423,5.454,6.25,6.25,0,0,1,1.374,3.7,17.877,17.877,0,0,1-.226,3.759h8.076a7.3,7.3,0,0,1,.645-1.967,2.421,2.421,0,0,1,1.808-1.2c.787-.141,1.162-.056,1.4-.75a22.232,22.232,0,0,0,.78-3.73,9.094,9.094,0,0,0,1.568-.534c-.193-.224-1.8-2.212-1.919-2.486-.315-.726-.043-1.138.211-1.829a.815.815,0,0,0-.008-.586c-.985-3.775-3.652-6.039-7.506-6.039" transform="translate(-1 0)" fill="#202b6a" fill-rule="evenodd"/>
  </g>
  <path id="iconmonstr-database-1" d="M10.437,7.707V8.757c0,.822-1.964,1.489-4.219,1.489S2,9.578,2,8.757V7.707a8.172,8.172,0,0,0,4.219.963A8.177,8.177,0,0,0,10.437,7.707ZM6.219,6.252A8.177,8.177,0,0,1,2,5.289V6.328C2,7.15,3.964,7.817,6.219,7.817s4.219-.667,4.219-1.489V5.289A8.172,8.172,0,0,1,6.219,6.252ZM6.219,0C3.964,0,2,.667,2,1.489S3.964,2.977,6.219,2.977s4.219-.667,4.219-1.489S8.473,0,6.219,0Zm0,3.831A8.177,8.177,0,0,1,2,2.868V3.91C2,4.732,3.964,5.4,6.219,5.4s4.219-.667,4.219-1.489V2.868A8.172,8.172,0,0,1,6.219,3.831Z" transform="translate(9.781 8.878)" fill="#9f4a8e"/>
</svg>
