<svg xmlns="http://www.w3.org/2000/svg" width="24.126" height="48.126" viewBox="0 0 24.126 48.126">
  <g id="death_spraycan_8" transform="translate(-335.462 -175.577)">
    <path id="Pfad_46" data-name="Pfad 46" d="M337.763,191.432l19.54.029v29.214l.533.006s.688.011.689.98-.689.979-.689.979H337.215s-.692-.011-.69-.979c0-.986.69-.98.69-.98l.529-.006Z" fill="none" stroke="#202b6a" stroke-miterlimit="10" stroke-width="2.126"/>
    <path id="Pfad_47" data-name="Pfad 47" d="M344.945,182.518l.018-5.878h5.16l-.017,5.878h3.569c1.5,0,3.781,2.5,3.781,3.861l.483.04a.909.909,0,0,1,.586.966c0,.981-.689.979-.689.979l-.38.033H337.594l-.47-.044a1.082,1.082,0,0,1,0-1.936l.47-.038c0-1.362,2.283-3.861,3.78-3.861Z" fill="none" stroke="#202b6a" stroke-miterlimit="10" stroke-width="2.126"/>
    <rect id="Rechteck_50" data-name="Rechteck 50" width="4.422" height="2.109" transform="translate(345.414 181.468)" fill="#202b6a"/>
    <ellipse id="Ellipse_23" data-name="Ellipse 23" cx="1.335" cy="1.225" rx="1.335" ry="1.225" transform="translate(346.153 178.479)" fill="#202b6a"/>
    <ellipse id="Ellipse_24" data-name="Ellipse 24" cx="0.534" cy="0.49" rx="0.534" ry="0.49" transform="translate(346.954 179.214)" fill="#d9e0fe"/>
    <path id="Pfad_48" data-name="Pfad 48" d="M345.755,204.458h-5.729l4.635-3.369-1.77-5.449,4.635,3.368,4.635-3.368-1.77,5.449,4.635,3.369H349.3l-1.771,5.448Z" fill="#9f4a8e"/>
    <g id="Gruppe_16" data-name="Gruppe 16">
      <path id="Pfad_49" data-name="Pfad 49" d="M352.286,215.313l-10.644-4.041.545-1.086,10.645,4.039Z" fill="#9f4a8e"/>
      <path id="Pfad_50" data-name="Pfad 50" d="M343.317,210.392a1.1,1.1,0,0,1-1.39.524.945.945,0,0,1-.575-1.271,1.1,1.1,0,0,1,1.391-.525A.947.947,0,0,1,343.317,210.392Z" fill="#9f4a8e"/>
      <path id="Pfad_51" data-name="Pfad 51" d="M342.624,211.9a1.1,1.1,0,0,1-1.39.524.945.945,0,0,1-.575-1.271,1.1,1.1,0,0,1,1.39-.525A.946.946,0,0,1,342.624,211.9Z" fill="#9f4a8e"/>
      <path id="Pfad_52" data-name="Pfad 52" d="M354.124,214.416a1.1,1.1,0,0,1-1.389.524.945.945,0,0,1-.574-1.271,1.1,1.1,0,0,1,1.39-.525A.945.945,0,0,1,354.124,214.416Z" fill="#9f4a8e"/>
      <path id="Pfad_53" data-name="Pfad 53" d="M353.443,215.933a1.1,1.1,0,0,1-1.388.526.945.945,0,0,1-.575-1.271,1.1,1.1,0,0,1,1.389-.526A.943.943,0,0,1,353.443,215.933Z" fill="#9f4a8e"/>
    </g>
    <g id="Gruppe_17" data-name="Gruppe 17">
      <path id="Pfad_54" data-name="Pfad 54" d="M342.335,215.556l10.387-4.565-.577-.983-10.387,4.565Z" fill="#9f4a8e"/>
      <path id="Pfad_55" data-name="Pfad 55" d="M351.173,210.188a1.108,1.108,0,0,0,1.417.455.937.937,0,0,0,.5-1.3,1.11,1.11,0,0,0-1.419-.455A.938.938,0,0,0,351.173,210.188Z" fill="#9f4a8e"/>
      <path id="Pfad_56" data-name="Pfad 56" d="M351.954,211.655a1.113,1.113,0,0,0,1.419.456.938.938,0,0,0,.5-1.3,1.109,1.109,0,0,0-1.418-.456A.938.938,0,0,0,351.954,211.655Z" fill="#9f4a8e"/>
      <path id="Pfad_57" data-name="Pfad 57" d="M340.621,214.744a1.11,1.11,0,0,0,1.419.456.938.938,0,0,0,.5-1.3,1.108,1.108,0,0,0-1.419-.455A.935.935,0,0,0,340.621,214.744Z" fill="#9f4a8e"/>
      <path id="Pfad_58" data-name="Pfad 58" d="M341.391,216.226a1.109,1.109,0,0,0,1.418.456.936.936,0,0,0,.5-1.3,1.109,1.109,0,0,0-1.418-.456A.936.936,0,0,0,341.391,216.226Z" fill="#9f4a8e"/>
    </g>
  </g>
</svg>
