<?xml version="1.0" encoding="utf-8"?>
<!-- Generator: Adobe Illustrator 15.0.0, SVG Export Plug-In . SVG Version: 6.00 Build 0)  -->
<!DOCTYPE svg PUBLIC "-//W3C//DTD SVG 1.1//EN" "http://www.w3.org/Graphics/SVG/1.1/DTD/svg11.dtd">
<svg version="1.1" id="Download_Icon" xmlns="http://www.w3.org/2000/svg" xmlns:xlink="http://www.w3.org/1999/xlink" x="0px"
	 y="0px" width="24px" height="24px" viewBox="-2 -2 24 24" enable-background="new -2 -2 24 24" xml:space="preserve">
<path id="iconmonstr-save-13" fill="#202B6A" d="M12,7.991h5.001l-7,7.991L3.002,7.991H8V-2h3.999L12,7.991z M16.213-0.249
	L14.999,1.35c4.783,2.758,6.422,8.869,3.659,13.647c-2.758,4.777-8.873,6.415-13.655,3.655C0.22,15.893-1.418,9.785,1.342,5.007
	c0.877-1.52,2.141-2.78,3.661-3.657L3.789-0.247c-5.67,3.427-7.484,10.798-4.053,16.463s10.808,7.477,16.477,4.049
	c5.671-3.427,7.483-10.798,4.054-16.463c-1.004-1.657-2.394-3.047-4.054-4.049L16.213-0.249z"/>
</svg>
