<?xml version="1.0" encoding="utf-8"?>
<!-- Generator: Adobe Illustrator 15.0.0, SVG Export Plug-In . SVG Version: 6.00 Build 0)  -->
<!DOCTYPE svg PUBLIC "-//W3C//DTD SVG 1.1//EN" "http://www.w3.org/Graphics/SVG/1.1/DTD/svg11.dtd">
<svg version="1.1" id="Ebene_1" xmlns="http://www.w3.org/2000/svg" xmlns:xlink="http://www.w3.org/1999/xlink" x="0px" y="0px"
	 width="24px" height="24px" viewBox="0.092 0.125 24 24" enable-background="new 0.092 0.125 24 24" xml:space="preserve">
<g id="Icon_Orte-Wege" transform="translate(0.663 0.726)">
	<circle id="Ellipse_8" fill="#E2E6FC" cx="11.429" cy="11.399" r="12"/>
	<path id="Pfad_6" fill="#F8F7FC" stroke="#A5B2CC" d="M17.923,1.88l-0.001,18.89c-0.878,0.652-1.85,1.172-2.879,1.537
		c-1.021,0.346-2.1,0.498-3.177,0.447l0.002-5.891L1.331,16.866c-0.479-0.988-0.856-2.023-1.125-3.092
		c-0.215-0.953-0.284-1.934-0.208-2.908H11.93L11.873-0.149c1.086-0.046,2.168,0.14,3.177,0.545
		C16.067,0.765,17.033,1.263,17.923,1.88z"/>
	<path id="iconmonstr-pin-23" fill="#202B6A" d="M12.027,10.555l-0.7,0.699l2.313,2.327h1.469L12.027,10.555z M6.141,7.547
		C4.979,6.386,3.898,7.318,3.106,6.58l4-4c0.737,0.792-0.071,1.748,1.09,2.909c1.511,1.509,2.435-0.309,5.118,2.372l-4.8,4.799
		C5.827,9.98,7.649,9.056,6.141,7.547z"/>
	<g id="Ellipse_10" transform="translate(2.237 1.101)">
		<circle fill="none" cx="9.192" cy="10.298" r="12"/>
		<circle fill="none" stroke="#202B6A" cx="9.192" cy="10.298" r="11.5"/>
	</g>
</g>
</svg>
