<svg xmlns="http://www.w3.org/2000/svg" width="36" height="40" viewBox="0 0 36 40">
  <g id="Gruppe_63" data-name="Gruppe 63" transform="translate(-195 -1011)">
    <g id="Gruppe_62" data-name="Gruppe 62" transform="translate(-329 457.715)">
      <path id="iconmonstr-school-17" d="M25.539,40H4.913s1.2-6.552,1.036-9.477a7.7,7.7,0,0,0-.884-3.507c-1.055-1.667-4.313-6.2-4.05-12.384C1.381,5.95,8.694,0,17.585,0,25.927,0,31.5,5,33.716,12.472a5.129,5.129,0,0,1-.247,4.345l-.01.022,2.865,3.57A3.666,3.666,0,0,1,37,22.474a3.221,3.221,0,0,1-1,2.332,5.689,5.689,0,0,1-2.042,1.07s-.943,4.32-1.429,5.485c-1.145,2.738-3.224,2.765-4.86,3.082-.645.138-.8.222-1.114,1.135A43.543,43.543,0,0,0,25.539,40M17.616,3.332C10.6,3.412,4.95,7.579,4.327,14.146a15.824,15.824,0,0,0,2.481,9.509c1,1.667,2.135,2.653,2.4,6.459a31.166,31.166,0,0,1-.394,6.554H22.888a12.728,12.728,0,0,1,1.124-3.428,4.221,4.221,0,0,1,3.152-2.09c1.371-.247,2.026-.1,2.437-1.308a38.758,38.758,0,0,0,1.36-6.5,15.854,15.854,0,0,0,2.734-.932c-.337-.39-3.139-3.857-3.346-4.334-.55-1.265-.075-1.983.368-3.188a1.42,1.42,0,0,0-.015-1.022C28.985,7.279,24.334,3.332,17.616,3.332" transform="translate(523 553.285)" fill="#202b6a" fill-rule="evenodd"/>
    </g>
    <path id="iconmonstr-database-1" d="M16,12.789V14.53C16,15.894,12.742,17,9,17s-7-1.106-7-2.47V12.789c1.693,1.231,4.9,1.6,7,1.6S14.312,14.017,16,12.789ZM9,10.374c-2.1,0-5.312-.37-7-1.6V10.5c0,1.364,3.259,2.47,7,2.47s7-1.106,7-2.47V8.776C14.307,10.007,11.1,10.374,9,10.374ZM9,0C5.259,0,2,1.106,2,2.471s3.259,2.47,7,2.47,7-1.106,7-2.47S12.742,0,9,0ZM9,6.357c-2.1,0-5.312-.37-7-1.6V6.488c0,1.364,3.259,2.47,7,2.47s7-1.106,7-2.47V4.759C14.307,5.99,11.1,6.357,9,6.357Z" transform="translate(203 1019)" fill="#9f4a8e"/>
  </g>
</svg>
