<svg xmlns="http://www.w3.org/2000/svg" width="57.313" height="57.406" viewBox="0 0 57.313 57.406">
  <g id="Gruppe_65" data-name="Gruppe 65" transform="translate(-25.5 -993.344)">
    <path id="Pfad_99" data-name="Pfad 99" d="M-1673.562,843.344h12.219V855.25h14.156v12.594h-14.156V900.75h-11.844V885.719H-1704.5V873.375h30.938Z" transform="translate(1730 150)" fill="#f8f7fc"/>
    <path id="Pfad_100" data-name="Pfad 100" d="M57.871,25h-14V58.178" transform="translate(24.129 992)" fill="none" stroke="#a5b2cc" stroke-width="3"/>
    <path id="Pfad_101" data-name="Pfad 101" d="M58,14H43.732V1.886" transform="translate(24 992)" fill="none" stroke="#a5b2cc" stroke-width="3"/>
    <path id="Pfad_102" data-name="Pfad 102" d="M33,2V32.047H1.966" transform="translate(24 992)" fill="none" stroke="#a5b2cc" stroke-width="3"/>
    <path id="Pfad_103" data-name="Pfad 103" d="M2,43H33.586V58.039" transform="translate(24 992)" fill="none" stroke="#a5b2cc" stroke-width="3"/>
    <path id="iconmonstr-pin-23" d="M18.577,17.668l-1.458,1.464L21.933,24H25ZM6.319,11.382C3.9,8.955,1.65,10.9,0,9.364L8.333,1C9.869,2.656,8.185,4.653,10.6,7.081c3.142,3.153,5.064-.653,10.654,4.958l-10,10.036C5.668,16.464,9.461,14.537,6.319,11.382Z" transform="translate(36.852 1003.93)" fill="#636d80"/>
  </g>
</svg>
