<svg xmlns="http://www.w3.org/2000/svg" width="44" height="49" viewBox="0 0 44 49">
  <g id="Gruppe_61" data-name="Gruppe 61" transform="translate(-112 -1007)">
    <path id="iconmonstr-paintbrush-7" d="M9.747,15.15A2.165,2.165,0,1,1,7.564,13,2.165,2.165,0,0,1,9.747,15.15Zm-1.06-4.318a2.166,2.166,0,1,1,2.146-2.184A2.167,2.167,0,0,1,8.687,10.832Zm8.646-4.348a2.167,2.167,0,1,1-2.183-2.148A2.171,2.171,0,0,1,17.334,6.483Zm-13,17.167c4.969.412,3.189-4.866,7.787-4.915L14.112,20.4C14.608,26.4,7.27,27.733,4.333,23.65Zm15.237-7.708C21.117,13.517,25.9,5.383,25.9,5.383A.7.7,0,0,0,24.848,4.5s-7.12,6.19-9.22,8.152c-1.66,1.551-1.667,2.26-2.2,4.817l1.82,1.517c2.413-.991,3.107-1.127,4.328-3.045ZM5.9,21.149A10.811,10.811,0,0,1,12.913,2.168c4.158-.023,7.019,2.064,7.037,3.734l1.8-1.577C20.658,1.916,17.222-.057,12.9,0A13,13,0,0,0,3.058,21.37,2.55,2.55,0,0,0,5.9,21.149ZM19.76,19.084c1.147,2.134-1.464,3.651-3.84,4.324a6.694,6.694,0,0,1-1.489,2.5c5.693-.64,9.816-4.662,6.788-8.546a8.442,8.442,0,0,1-1.459,1.718Z" transform="translate(130 1018)" fill="#6a195a"/>
    <text id="A" transform="translate(112 1021)" fill="#606fc4" font-size="15" font-family="Arial-BoldMT, Arial" font-weight="700"><tspan x="0" y="0">A</tspan></text>
    <text id="Z" transform="translate(113 1053)" fill="#606fc4" font-size="15" font-family="Arial-BoldMT, Arial" font-weight="700"><tspan x="0" y="0">Z</tspan></text>
    <circle id="Ellipse_32" data-name="Ellipse 32" cx="1.5" cy="1.5" r="1.5" transform="translate(116 1024)" fill="#606fc4"/>
    <circle id="Ellipse_33" data-name="Ellipse 33" cx="1.5" cy="1.5" r="1.5" transform="translate(116 1030)" fill="#606fc4"/>
    <circle id="Ellipse_34" data-name="Ellipse 34" cx="1.5" cy="1.5" r="1.5" transform="translate(116 1036)" fill="#606fc4"/>
  </g>
</svg>
