<svg xmlns="http://www.w3.org/2000/svg" width="58" height="58" viewBox="0 0 58 58">
  <g id="Gruppe_61" data-name="Gruppe 61" transform="translate(-61 -1002)">
    <rect id="Rechteck_92" data-name="Rechteck 92" width="58" height="58" rx="12" transform="translate(61 1002)" fill="#e5e9f3"/>
    <path id="Pfad_98" data-name="Pfad 98" d="M-1673.562,843.344h12.219V855.25h14.156v12.594h-14.156V900.75h-11.844V885.719H-1704.5V873.375h30.938Z" transform="translate(1766 159)" fill="#f8f7fc"/>
    <path id="Pfad_99" data-name="Pfad 99" d="M57.871,25h-14V58.178" transform="translate(60.129 1001)" fill="none" stroke="#bdc9fb" stroke-width="3"/>
    <path id="Pfad_100" data-name="Pfad 100" d="M58,14H43.732V1.886" transform="translate(60 1001)" fill="none" stroke="#bdc9fb" stroke-width="3"/>
    <path id="Pfad_101" data-name="Pfad 101" d="M33,2V32.047H1.966" transform="translate(60 1001)" fill="none" stroke="#bdc9fb" stroke-width="3"/>
    <path id="Pfad_102" data-name="Pfad 102" d="M2,43H33.586V58.039" transform="translate(60 1001)" fill="none" stroke="#bdc9fb" stroke-width="3"/>
    <path id="iconmonstr-pin-23" d="M18.577,17.668l-1.458,1.464L21.933,24H25ZM6.319,11.382C3.9,8.955,1.65,10.9,0,9.364L8.333,1C9.869,2.656,8.185,4.653,10.6,7.081c3.142,3.153,5.064-.653,10.654,4.958l-10,10.036C5.668,16.464,9.461,14.537,6.319,11.382Z" transform="translate(72.852 1012.93)" fill="#6a195a"/>
  </g>
</svg>
