<?xml version="1.0" encoding="utf-8"?>
<!-- Generator: Adobe Illustrator 15.0.0, SVG Export Plug-In . SVG Version: 6.00 Build 0)  -->
<!DOCTYPE svg PUBLIC "-//W3C//DTD SVG 1.1//EN" "http://www.w3.org/Graphics/SVG/1.1/DTD/svg11.dtd">
<svg version="1.1" id="Icon_Kuenstler" xmlns="http://www.w3.org/2000/svg" xmlns:xlink="http://www.w3.org/1999/xlink" x="0px"
	 y="0px" width="24px" height="24px" viewBox="0 0 24 24" enable-background="new 0 0 24 24" xml:space="preserve">
<g id="Ellipse_19">
	<circle fill="none" cx="12" cy="12" r="12"/>
	<circle fill="none" stroke="#202B6A" cx="12" cy="12" r="11.5"/>
</g>
<path id="iconmonstr-paintbrush-7" fill="#6A195A" d="M10,13.023c0.005,0.736-0.586,1.337-1.322,1.342
	c-0.735,0.006-1.336-0.586-1.342-1.321c-0.005-0.734,0.585-1.334,1.319-1.342c0.735-0.007,1.337,0.583,1.345,1.319V13.023z
	 M9.346,10.367C8.61,10.374,8.008,9.782,8.001,9.046C7.995,8.31,8.586,7.708,9.322,7.701c0.736-0.006,1.338,0.585,1.345,1.321
	c0,0,0,0.001,0,0.001C10.673,9.759,10.082,10.36,9.346,10.367z M14.667,7.691c0.006,0.736-0.586,1.338-1.322,1.344
	c-0.735,0.006-1.338-0.585-1.344-1.322c-0.006-0.736,0.586-1.338,1.322-1.344C14.059,6.365,14.659,6.956,14.667,7.691z
	 M6.667,18.255c3.058,0.253,1.963-2.995,4.792-3.024l1.225,1.022C12.989,19.945,8.474,20.768,6.667,18.255L6.667,18.255z
	 M16.043,13.512c0.951-1.493,3.9-6.5,3.9-6.5c0.117-0.207,0.045-0.469-0.162-0.586c-0.156-0.088-0.351-0.071-0.488,0.044
	c0,0-4.384,3.811-5.676,5.019c-1.018,0.954-1.026,1.39-1.357,2.964l1.12,0.934C14.865,14.775,15.292,14.693,16.043,13.512z
	 M7.628,16.712c-2.774-2.409-3.07-6.611-0.661-9.385c1.253-1.444,3.068-2.278,4.98-2.291c2.559-0.014,4.318,1.27,4.33,2.3
	l1.109-0.971c-0.674-1.484-2.787-2.699-5.452-2.663c-4.418,0.038-7.969,3.65-7.931,8.068c0.016,1.86,0.68,3.657,1.878,5.081
	c0.556,0.314,1.247,0.262,1.747-0.135L7.628,16.712z M16.159,15.441c0.706,1.313-0.9,2.246-2.363,2.66
	c-0.188,0.575-0.501,1.102-0.916,1.541c3.5-0.394,6.041-2.869,4.177-5.258c-0.251,0.391-0.554,0.746-0.899,1.057H16.159z"/>
</svg>
