<svg id="icon-instagram" xmlns="http://www.w3.org/2000/svg" width="28" height="84" viewBox="0 0 28 84">
  <path id="iconmonstr-instagram-15" d="M14,2.333A11.667,11.667,0,1,1,2.333,14,11.68,11.68,0,0,1,14,2.333ZM14,0A14,14,0,1,0,28,14,14,14,0,0,0,14,0Zm0,8.262c1.869,0,2.091.007,2.829.041a2.63,2.63,0,0,1,2.87,2.869c.033.739.04.959.04,2.828s-.007,2.091-.04,2.828a2.631,2.631,0,0,1-2.87,2.87c-.739.033-.959.041-2.829.041s-2.091-.007-2.828-.041a2.632,2.632,0,0,1-2.87-2.87c-.033-.737-.041-.959-.041-2.828s.008-2.091.041-2.828a2.629,2.629,0,0,1,2.87-2.87c.737-.034.959-.04,2.828-.04ZM14,7c-1.9,0-2.139.008-2.886.043a3.863,3.863,0,0,0-4.072,4.07C7.008,11.861,7,12.1,7,14s.008,2.14.042,2.886a3.865,3.865,0,0,0,4.072,4.072c.748.034.985.042,2.886.042s2.14-.008,2.888-.042a3.864,3.864,0,0,0,4.07-4.072C20.992,16.14,21,15.9,21,14s-.008-2.139-.042-2.886a3.862,3.862,0,0,0-4.07-4.071C16.14,7.008,15.9,7,14,7Zm0,3.405A3.595,3.595,0,1,0,17.594,14,3.595,3.595,0,0,0,14,10.405Zm0,5.928A2.333,2.333,0,1,1,16.334,14,2.333,2.333,0,0,1,14,16.333Zm3.736-6.909a.84.84,0,1,0,.841.84A.84.84,0,0,0,17.736,9.424Z" fill="#606fc4"/>
  <circle id="Ellipse_50" data-name="Ellipse 50" cx="14" cy="14" r="14" transform="translate(0 56)" fill="#f1f3fd"/>
  <path id="iconmonstr-instagram-15-2" data-name="iconmonstr-instagram-15" d="M14,2.333A11.667,11.667,0,1,1,2.333,14,11.68,11.68,0,0,1,14,2.333ZM14,0A14,14,0,1,0,28,14,14,14,0,0,0,14,0Zm0,8.262c1.869,0,2.091.007,2.829.041a2.63,2.63,0,0,1,2.87,2.869c.033.739.04.959.04,2.828s-.007,2.091-.04,2.828a2.631,2.631,0,0,1-2.87,2.87c-.739.033-.959.041-2.829.041s-2.091-.007-2.828-.041a2.632,2.632,0,0,1-2.87-2.87c-.033-.737-.041-.959-.041-2.828s.008-2.091.041-2.828a2.629,2.629,0,0,1,2.87-2.87c.737-.034.959-.04,2.828-.04ZM14,7c-1.9,0-2.139.008-2.886.043a3.863,3.863,0,0,0-4.072,4.07C7.008,11.861,7,12.1,7,14s.008,2.14.042,2.886a3.865,3.865,0,0,0,4.072,4.072c.748.034.985.042,2.886.042s2.14-.008,2.888-.042a3.864,3.864,0,0,0,4.07-4.072C20.992,16.14,21,15.9,21,14s-.008-2.139-.042-2.886a3.862,3.862,0,0,0-4.07-4.071C16.14,7.008,15.9,7,14,7Zm0,3.405A3.595,3.595,0,1,0,17.594,14,3.595,3.595,0,0,0,14,10.405Zm0,5.928A2.333,2.333,0,1,1,16.334,14,2.333,2.333,0,0,1,14,16.333Zm3.736-6.909a.84.84,0,1,0,.841.84A.84.84,0,0,0,17.736,9.424Z" transform="translate(0 56)" fill="#202b6a"/>
</svg>
