<svg id="icon-www" xmlns="http://www.w3.org/2000/svg" width="28" height="84" viewBox="0 0 28 84">
  <path id="iconmonstr-globe-3" d="M14,0A14,14,0,1,0,28,14,14,14,0,0,0,14,0Zm1.167,18.733V15.167H18.66a21.61,21.61,0,0,1-.532,3.825,28.3,28.3,0,0,0-2.961-.259Zm2.283,2.522a13.929,13.929,0,0,1-2.283,4.032V21.064C15.944,21.1,16.705,21.159,17.45,21.255Zm-2.283-8.422V9.316a28.207,28.207,0,0,0,2.973-.261,21.566,21.566,0,0,1,.52,3.779Zm0-5.85V2.712a13.951,13.951,0,0,1,2.3,4.079C16.717,6.889,15.949,6.951,15.167,6.984ZM18.32,3.172a11.7,11.7,0,0,1,3.838,2.5,20.33,20.33,0,0,1-2.356.708A17.876,17.876,0,0,0,18.32,3.172ZM9.872,18.992a21.5,21.5,0,0,1-.532-3.825h3.493v3.567A28.3,28.3,0,0,0,9.872,18.992Zm2.961,2.072v4.223a13.929,13.929,0,0,1-2.283-4.032C11.294,21.159,12.056,21.1,12.833,21.064ZM9.34,12.833a21.457,21.457,0,0,1,.52-3.779,28.207,28.207,0,0,0,2.973.261v3.517Zm1.195-6.042a13.975,13.975,0,0,1,2.3-4.079V6.984C12.05,6.951,11.283,6.889,10.535,6.791ZM8.2,6.383a20.242,20.242,0,0,1-2.354-.708,11.711,11.711,0,0,1,3.838-2.5A18.035,18.035,0,0,0,8.2,6.383ZM7.555,8.62a23.777,23.777,0,0,0-.574,4.213H2.393A11.58,11.58,0,0,1,4.279,7.562,22.243,22.243,0,0,0,7.555,8.62Zm.01,10.806A22.388,22.388,0,0,0,4.3,20.476a11.576,11.576,0,0,1-1.91-5.309h4.59A23.737,23.737,0,0,0,7.566,19.426Zm.645,2.236a17.916,17.916,0,0,0,1.466,3.164,11.678,11.678,0,0,1-3.8-2.467,20.527,20.527,0,0,1,2.332-.7Zm11.578,0a20.6,20.6,0,0,1,2.332.7,11.737,11.737,0,0,1-3.8,2.469A18.054,18.054,0,0,0,19.789,21.663Zm.645-2.236a23.737,23.737,0,0,0,.584-4.259h4.59A11.591,11.591,0,0,1,23.7,20.476,22.434,22.434,0,0,0,20.434,19.426Zm.584-6.593a23.886,23.886,0,0,0-.574-4.213,22.258,22.258,0,0,0,3.277-1.058,11.592,11.592,0,0,1,1.885,5.271H21.019Z" fill="#606fc4"/>
  <circle id="Ellipse_49" data-name="Ellipse 49" cx="14" cy="14" r="14" transform="translate(0 56)" fill="#f1f3fd"/>
  <path id="iconmonstr-globe-3-2" data-name="iconmonstr-globe-3" d="M14,0A14,14,0,1,0,28,14,14,14,0,0,0,14,0Zm1.167,18.733V15.167H18.66a21.61,21.61,0,0,1-.532,3.825,28.3,28.3,0,0,0-2.961-.259Zm2.283,2.522a13.929,13.929,0,0,1-2.283,4.032V21.064C15.944,21.1,16.705,21.159,17.45,21.255Zm-2.283-8.422V9.316a28.207,28.207,0,0,0,2.973-.261,21.566,21.566,0,0,1,.52,3.779Zm0-5.85V2.712a13.951,13.951,0,0,1,2.3,4.079C16.717,6.889,15.949,6.951,15.167,6.984ZM18.32,3.172a11.7,11.7,0,0,1,3.838,2.5,20.33,20.33,0,0,1-2.356.708A17.876,17.876,0,0,0,18.32,3.172ZM9.872,18.992a21.5,21.5,0,0,1-.532-3.825h3.493v3.567A28.3,28.3,0,0,0,9.872,18.992Zm2.961,2.072v4.223a13.929,13.929,0,0,1-2.283-4.032C11.294,21.159,12.056,21.1,12.833,21.064ZM9.34,12.833a21.457,21.457,0,0,1,.52-3.779,28.207,28.207,0,0,0,2.973.261v3.517Zm1.195-6.042a13.975,13.975,0,0,1,2.3-4.079V6.984C12.05,6.951,11.283,6.889,10.535,6.791ZM8.2,6.383a20.242,20.242,0,0,1-2.354-.708,11.711,11.711,0,0,1,3.838-2.5A18.035,18.035,0,0,0,8.2,6.383ZM7.555,8.62a23.777,23.777,0,0,0-.574,4.213H2.393A11.58,11.58,0,0,1,4.279,7.562,22.243,22.243,0,0,0,7.555,8.62Zm.01,10.806A22.388,22.388,0,0,0,4.3,20.476a11.576,11.576,0,0,1-1.91-5.309h4.59A23.737,23.737,0,0,0,7.566,19.426Zm.645,2.236a17.916,17.916,0,0,0,1.466,3.164,11.678,11.678,0,0,1-3.8-2.467,20.527,20.527,0,0,1,2.332-.7Zm11.578,0a20.6,20.6,0,0,1,2.332.7,11.737,11.737,0,0,1-3.8,2.469A18.054,18.054,0,0,0,19.789,21.663Zm.645-2.236a23.737,23.737,0,0,0,.584-4.259h4.59A11.591,11.591,0,0,1,23.7,20.476,22.434,22.434,0,0,0,20.434,19.426Zm.584-6.593a23.886,23.886,0,0,0-.574-4.213,22.258,22.258,0,0,0,3.277-1.058,11.592,11.592,0,0,1,1.885,5.271H21.019Z" transform="translate(0 56)" fill="#202b6a"/>
</svg>
