<?xml version="1.0" encoding="utf-8"?>
<!-- Generator: Adobe Illustrator 15.0.0, SVG Export Plug-In . SVG Version: 6.00 Build 0)  -->
<!DOCTYPE svg PUBLIC "-//W3C//DTD SVG 1.1//EN" "http://www.w3.org/Graphics/SVG/1.1/DTD/svg11.dtd">
<svg version="1.1" id="Ebene_1" xmlns="http://www.w3.org/2000/svg" xmlns:xlink="http://www.w3.org/1999/xlink" x="0px" y="0px"
	 width="26px" height="36px" viewBox="-1 -1 26 36" enable-background="new -1 -1 26 36" xml:space="preserve">
<path fill="#B91842" d="M24,11.426C24.027,19.012,13.343,34,11.92,34C10.784,34-0.027,18.857,0,11.426C0.023,5.113,5.371,0,12,0
	S23.977,5.113,24,11.426z"/>
<path id="iconmonstr-paintbrush-7" fill="#FFFFFF" d="M9.793,13.066c0.006,0.774-0.615,1.406-1.393,1.41
	c-0.774,0.006-1.405-0.619-1.412-1.39c-0.006-0.772,0.615-1.403,1.388-1.409c0.774-0.012,1.41,0.61,1.417,1.383V13.066z
	 M9.104,10.271C8.33,10.279,7.696,9.658,7.689,8.885C7.682,8.107,8.305,7.475,9.08,7.469c0.777-0.008,1.409,0.613,1.417,1.389
	c0,0,0,0,0,0.002C10.502,9.633,9.881,10.266,9.104,10.271z M14.709,7.459c0.006,0.775-0.619,1.406-1.391,1.412
	c-0.776,0.006-1.41-0.614-1.418-1.391c-0.004-0.774,0.618-1.406,1.392-1.412C14.068,6.063,14.701,6.684,14.709,7.459z M6.284,18.568
	c3.221,0.266,2.067-3.151,5.045-3.184l1.29,1.078C12.941,20.348,8.186,21.211,6.284,18.568L6.284,18.568z M16.158,13.58
	c1.002-1.568,4.109-6.836,4.109-6.836c0.121-0.217,0.045-0.494-0.177-0.615c-0.166-0.096-0.366-0.076-0.514,0.047
	c0,0-4.616,4.008-5.979,5.279c-1.072,1.002-1.082,1.46-1.43,3.115l1.184,0.98C14.92,14.909,15.368,14.82,16.158,13.58z
	 M7.296,16.943c-2.922-2.532-3.231-6.95-0.694-9.871c1.317-1.518,3.229-2.393,5.242-2.405c2.694-0.019,4.549,1.335,4.563,2.416
	l1.168-1.021c-0.71-1.56-2.934-2.84-5.74-2.803C7.183,3.302,3.44,7.101,3.48,11.748c0.018,1.955,0.714,3.847,1.977,5.343
	c0.586,0.331,1.315,0.273,1.841-0.146L7.296,16.943z M16.281,15.609c0.742,1.381-0.946,2.362-2.49,2.795
	c-0.2,0.609-0.528,1.16-0.964,1.621c3.688-0.41,6.36-3.016,4.397-5.525c-0.266,0.408-0.584,0.781-0.945,1.111L16.281,15.609
	L16.281,15.609z"/>
</svg>
