<?xml version="1.0" encoding="utf-8"?>
<!-- Generator: Adobe Illustrator 15.0.0, SVG Export Plug-In . SVG Version: 6.00 Build 0)  -->
<!DOCTYPE svg PUBLIC "-//W3C//DTD SVG 1.1//EN" "http://www.w3.org/Graphics/SVG/1.1/DTD/svg11.dtd">
<svg version="1.1" id="Ebene_2" xmlns="http://www.w3.org/2000/svg" xmlns:xlink="http://www.w3.org/1999/xlink" x="0px" y="0px"
	 width="61px" height="244.012px" viewBox="-3.434 0 61 244.012" enable-background="new -3.434 0 61 244.012" xml:space="preserve"
	>
<g>
	<linearGradient id="SVGID_1_" gradientUnits="userSpaceOnUse" x1="23.5693" y1="221.5574" x2="23.6069" y2="196.1605">
		<stop  offset="0.7256" style="stop-color:#606FC4"/>
		<stop  offset="1" style="stop-color:#202B6A"/>
	</linearGradient>
	<path fill="url(#SVGID_1_)" d="M50.566,241c0,1.993-1.001,2.988-3.003,2.988H-0.428c-2.065,0-3.066-0.995-3.003-2.988v-37.032
		c0-6.601,1.374-7.968,8.009-7.968h37.979c6.635,0,8.009,1.367,8.009,7.968V241z"/>
	<path fill="#BDC9FB" d="M0.566,201.01c0-2,1-2.999,3-2.999h42c2,0,3,0.999,3,2.999v39.99c0,2-1,2.999-3,2.999h-42
		c-2,0-3-0.999-3-2.999V201.01z"/>
	<path fill="#F1F3FD" d="M-1.434,203.01c0-2,1-3,3-3h42c2,0,3,1,3,3v37.99c0,2-1,2.999-3,2.999h-42c-2,0-3-0.999-3-2.999V203.01z"/>
	<linearGradient id="SVGID_2_" gradientUnits="userSpaceOnUse" x1="23.5405" y1="243.656" x2="23.601" y2="202.8195">
		<stop  offset="0" style="stop-color:#606FC4"/>
		<stop  offset="1" style="stop-color:#202B6A"/>
	</linearGradient>
	<path fill="url(#SVGID_2_)" d="M50.566,241.011c0,1.992-1.001,2.988-3.003,2.988H-0.428c-2.065,0-3.066-0.996-3.003-2.988v-31.045
		c0-6.601,1.374-7.968,8.009-7.968c0,0,15.692-0.006,16.708,0c1.015,0.005,1.062,0.114,2.031,0.999
		c0.609,0.568,3.897,3.55,4.471,4.052c0.7,0.609,0.841,0.953,3.028,0.947c1.172-0.01,11.741,0,11.741,0
		c6.635,0,8.009,1.368,8.009,7.968V241.011z"/>
</g>
<g>
	<linearGradient id="SVGID_3_" gradientUnits="userSpaceOnUse" x1="23.8081" y1="123.5564" x2="23.8457" y2="98.159">
		<stop  offset="0.8" style="stop-color:#606FC4"/>
		<stop  offset="1" style="stop-color:#202B6A"/>
	</linearGradient>
	<path fill="url(#SVGID_3_)" d="M51.044,143c0,1.993-1.01,2.988-3.029,2.988H-0.401c-2.084,0-3.094-0.995-3.03-2.988v-37.032
		c0-6.6,1.386-7.968,8.08-7.968h38.316c6.693,0,8.08,1.368,8.08,7.968V143z"/>
	<path fill="#BDC9FB" d="M0.602,103.01c0-2,1.009-3,3.026-3H46c2.018,0,3.026,1,3.026,3v39.99c0,2-1.009,2.999-3.026,2.999H3.628
		c-2.018,0-3.026-0.999-3.026-2.999V103.01z"/>
	<path fill="#F1F3FD" d="M-1.417,105.01c0-1.999,1.009-2.999,3.027-2.999h42.372c2.019,0,3.027,1,3.027,2.999v37.991
		c0,2-1.009,2.999-3.027,2.999H1.61c-2.018,0-3.027-0.999-3.027-2.999V105.01z"/>
	<linearGradient id="SVGID_4_" gradientUnits="userSpaceOnUse" x1="22.2275" y1="149.866" x2="32.2766" y2="106.5806">
		<stop  offset="0" style="stop-color:#606FC4"/>
		<stop  offset="1" style="stop-color:#010021"/>
	</linearGradient>
	<path fill="url(#SVGID_4_)" d="M52.053,140.974c-1.009,4.375-2.019,5.025-4.038,5.025H-0.401c-2.084,0-3.094-0.996-3.03-2.988
		l6.053-29.045c1.593-6.626,3.404-7.968,10.098-7.968c0,0,13.814-0.006,14.837,0c1.024,0.006,1.071,0.115,2.049,1
		c0.615,0.568,3.933,3.55,4.512,4.05c0.706,0.61,0.848,0.954,3.055,0.948c1.183-0.01,11.846,0,11.846,0
		c6.693,0,9.804,1.554,8.079,7.968L52.053,140.974z"/>
</g>
<g>
	<linearGradient id="SVGID_5_" gradientUnits="userSpaceOnUse" x1="23.7539" y1="62.7947" x2="23.8565" y2="-6.4926">
		<stop  offset="0" style="stop-color:#606FC4"/>
		<stop  offset="1" style="stop-color:#202B6A"/>
	</linearGradient>
	<path fill="url(#SVGID_5_)" d="M51.044,45c0,1.993-1.01,2.988-3.029,2.988H-0.401c-2.084,0-3.094-0.995-3.03-2.988V7.968
		c0-6.6,1.386-7.968,8.08-7.968h38.316c6.693,0,8.08,1.368,8.08,7.968V45z"/>
	<path fill="#BDC9FB" d="M0.602,5.01c0-2,1.009-3,3.026-3H46c2.018,0,3.026,1,3.026,3v39.99c0,2-1.009,2.999-3.026,2.999H3.628
		c-2.018,0-3.026-0.999-3.026-2.999V5.01z"/>
	<path fill="#F1F3FD" d="M-1.417,7.01c0-1.999,1.009-2.999,3.027-2.999h42.372c2.019,0,3.027,1,3.027,2.999v37.991
		c0,2-1.009,2.999-3.027,2.999H1.61c-2.018,0-3.027-0.999-3.027-2.999V7.01z"/>
	<linearGradient id="SVGID_6_" gradientUnits="userSpaceOnUse" x1="23.188" y1="47.7283" x2="35.2455" y2="-4.2086">
		<stop  offset="0" style="stop-color:#606FC4"/>
		<stop  offset="1" style="stop-color:#202B6A"/>
	</linearGradient>
	<path fill="url(#SVGID_6_)" d="M52.053,42.974C51.044,47.349,50.035,48,48.015,48H-0.401c-2.084,0-3.094-0.996-3.03-2.988
		l6.053-29.045C4.215,9.34,6.026,7.998,12.72,7.998c0,0,13.814-0.006,14.837,0c1.024,0.006,1.071,0.115,2.049,1
		c0.615,0.568,3.933,3.55,4.512,4.05c0.706,0.61,0.848,0.954,3.055,0.948c1.183-0.01,11.846,0,11.846,0
		c6.693,0,9.804,1.554,8.079,7.968L52.053,42.974z"/>
</g>
</svg>
